<?xml version="1.0" encoding="UTF-8" standalone="no"?>
<!DOCTYPE svg PUBLIC "-//W3C//DTD SVG 1.1//EN"
 "http://www.w3.org/Graphics/SVG/1.1/DTD/svg11.dtd">
<!-- Generated by graphviz version 2.38.0 (20140413.2041)
 -->
<!-- Title: controllers_diagram Pages: 1 -->
<svg width="1138pt" height="1049pt"
 viewBox="0.00 0.00 1138.46 1049.00" xmlns="http://www.w3.org/2000/svg" xmlns:xlink="http://www.w3.org/1999/xlink">
<g id="graph0" class="graph" transform="scale(1 1) rotate(0) translate(498.033 589.5)">
<title>controllers_diagram</title>
<polygon fill="white" stroke="none" points="-498.033,459.5 -498.033,-589.5 640.431,-589.5 640.431,459.5 -498.033,459.5"/>
<!-- _diagram_info -->
<g id="node1" class="node"><title>_diagram_info</title>
<text text-anchor="start" x="331.312" y="377.9" font-family="Times,serif" font-size="13.00">Controllers diagram</text>
<text text-anchor="start" x="331.312" y="390.9" font-family="Times,serif" font-size="13.00">Date: May 11 2015 &#45; 11:08</text>
<text text-anchor="start" x="331.312" y="403.9" font-family="Times,serif" font-size="13.00">Migration version: 20150510174027</text>
<text text-anchor="start" x="331.312" y="416.9" font-family="Times,serif" font-size="13.00">Generated by RailRoady 1.3.0</text>
<text text-anchor="start" x="331.312" y="429.9" font-family="Times,serif" font-size="13.00">http://railroady.prestonlee.com</text>
</g>
<!-- Admin::AdminController -->
<g id="node2" class="node"><title>Admin::AdminController</title>
<path fill="none" stroke="black" d="M-234.552,455C-234.552,455 -99.4482,455 -99.4482,455 -93.4482,455 -87.4482,449 -87.4482,443 -87.4482,443 -87.4482,377 -87.4482,377 -87.4482,371 -93.4482,365 -99.4482,365 -99.4482,365 -234.552,365 -234.552,365 -240.552,365 -246.552,371 -246.552,377 -246.552,377 -246.552,443 -246.552,443 -246.552,449 -240.552,455 -234.552,455"/>
<text text-anchor="middle" x="-167" y="380.2" font-family="Times,serif" font-size="14.00">Admin::AdminController</text>
<polyline fill="none" stroke="black" points="-246.552,387 -87.4482,387 "/>
<text text-anchor="start" x="-238.552" y="402.2" font-family="Times,serif" font-size="14.00">authorize</text>
<polyline fill="none" stroke="black" points="-246.552,409 -87.4482,409 "/>
<polyline fill="none" stroke="black" points="-246.552,433 -87.4482,433 "/>
<text text-anchor="start" x="-238.552" y="448.2" font-family="Times,serif" font-size="14.00">_layout</text>
</g>
<!-- Admin::BraceletsController -->
<g id="node3" class="node"><title>Admin::BraceletsController</title>
<path fill="none" stroke="black" d="M125.852,113C125.852,113 274.148,113 274.148,113 280.148,113 286.148,107 286.148,101 286.148,101 286.148,-161 286.148,-161 286.148,-167 280.148,-173 274.148,-173 274.148,-173 125.852,-173 125.852,-173 119.852,-173 113.852,-167 113.852,-161 113.852,-161 113.852,101 113.852,101 113.852,107 119.852,113 125.852,113"/>
<text text-anchor="middle" x="200" y="-157.8" font-family="Times,serif" font-size="14.00">Admin::BraceletsController</text>
<polyline fill="none" stroke="black" points="113.852,-151 286.148,-151 "/>
<text text-anchor="start" x="121.852" y="-135.8" font-family="Times,serif" font-size="14.00">change</text>
<text text-anchor="start" x="121.852" y="-121.8" font-family="Times,serif" font-size="14.00">changeentiretable</text>
<text text-anchor="start" x="121.852" y="-107.8" font-family="Times,serif" font-size="14.00">changerow</text>
<text text-anchor="start" x="121.852" y="-93.8" font-family="Times,serif" font-size="14.00">create</text>
<text text-anchor="start" x="121.852" y="-79.8" font-family="Times,serif" font-size="14.00">destroy</text>
<text text-anchor="start" x="121.852" y="-65.8" font-family="Times,serif" font-size="14.00">edit</text>
<text text-anchor="start" x="121.852" y="-51.8" font-family="Times,serif" font-size="14.00">index</text>
<text text-anchor="start" x="121.852" y="-37.8" font-family="Times,serif" font-size="14.00">new</text>
<text text-anchor="start" x="121.852" y="-23.8" font-family="Times,serif" font-size="14.00">pallete</text>
<text text-anchor="start" x="121.852" y="-9.8" font-family="Times,serif" font-size="14.00">show</text>
<text text-anchor="start" x="121.852" y="4.2" font-family="Times,serif" font-size="14.00">update</text>
<polyline fill="none" stroke="black" points="113.852,11 286.148,11 "/>
<polyline fill="none" stroke="black" points="113.852,35 286.148,35 "/>
<text text-anchor="start" x="121.852" y="50.2" font-family="Times,serif" font-size="14.00">_layout</text>
<text text-anchor="start" x="121.852" y="64.2" font-family="Times,serif" font-size="14.00">bracelet_params</text>
<text text-anchor="start" x="121.852" y="78.2" font-family="Times,serif" font-size="14.00">set_bracelet</text>
<text text-anchor="start" x="121.852" y="92.2" font-family="Times,serif" font-size="14.00">set_color_position</text>
<text text-anchor="start" x="121.852" y="106.2" font-family="Times,serif" font-size="14.00">set_current_color</text>
</g>
<!-- Admin::ColorPositionsController -->
<g id="node4" class="node"><title>Admin::ColorPositionsController</title>
<path fill="none" stroke="black" d="M221.272,-210C221.272,-210 400.728,-210 400.728,-210 406.728,-210 412.728,-216 412.728,-222 412.728,-222 412.728,-400 412.728,-400 412.728,-406 406.728,-412 400.728,-412 400.728,-412 221.272,-412 221.272,-412 215.272,-412 209.272,-406 209.272,-400 209.272,-400 209.272,-222 209.272,-222 209.272,-216 215.272,-210 221.272,-210"/>
<text text-anchor="middle" x="311" y="-396.8" font-family="Times,serif" font-size="14.00">Admin::ColorPositionsController</text>
<polyline fill="none" stroke="black" points="209.272,-390 412.728,-390 "/>
<text text-anchor="start" x="217.272" y="-374.8" font-family="Times,serif" font-size="14.00">create</text>
<text text-anchor="start" x="217.272" y="-360.8" font-family="Times,serif" font-size="14.00">destroy</text>
<text text-anchor="start" x="217.272" y="-346.8" font-family="Times,serif" font-size="14.00">edit</text>
<text text-anchor="start" x="217.272" y="-332.8" font-family="Times,serif" font-size="14.00">index</text>
<text text-anchor="start" x="217.272" y="-318.8" font-family="Times,serif" font-size="14.00">new</text>
<text text-anchor="start" x="217.272" y="-304.8" font-family="Times,serif" font-size="14.00">show</text>
<text text-anchor="start" x="217.272" y="-290.8" font-family="Times,serif" font-size="14.00">update</text>
<polyline fill="none" stroke="black" points="209.272,-284 412.728,-284 "/>
<polyline fill="none" stroke="black" points="209.272,-260 412.728,-260 "/>
<text text-anchor="start" x="217.272" y="-244.8" font-family="Times,serif" font-size="14.00">_layout</text>
<text text-anchor="start" x="217.272" y="-230.8" font-family="Times,serif" font-size="14.00">color_position_params</text>
<text text-anchor="start" x="217.272" y="-216.8" font-family="Times,serif" font-size="14.00">set_color_position</text>
</g>
<!-- Admin::ColorsController -->
<g id="node5" class="node"><title>Admin::ColorsController</title>
<path fill="none" stroke="black" d="M335.224,322C335.224,322 468.776,322 468.776,322 474.776,322 480.776,316 480.776,310 480.776,310 480.776,132 480.776,132 480.776,126 474.776,120 468.776,120 468.776,120 335.224,120 335.224,120 329.224,120 323.224,126 323.224,132 323.224,132 323.224,310 323.224,310 323.224,316 329.224,322 335.224,322"/>
<text text-anchor="middle" x="402" y="135.2" font-family="Times,serif" font-size="14.00">Admin::ColorsController</text>
<polyline fill="none" stroke="black" points="323.224,142 480.776,142 "/>
<text text-anchor="start" x="331.224" y="157.2" font-family="Times,serif" font-size="14.00">create</text>
<text text-anchor="start" x="331.224" y="171.2" font-family="Times,serif" font-size="14.00">destroy</text>
<text text-anchor="start" x="331.224" y="185.2" font-family="Times,serif" font-size="14.00">edit</text>
<text text-anchor="start" x="331.224" y="199.2" font-family="Times,serif" font-size="14.00">index</text>
<text text-anchor="start" x="331.224" y="213.2" font-family="Times,serif" font-size="14.00">new</text>
<text text-anchor="start" x="331.224" y="227.2" font-family="Times,serif" font-size="14.00">show</text>
<text text-anchor="start" x="331.224" y="241.2" font-family="Times,serif" font-size="14.00">update</text>
<polyline fill="none" stroke="black" points="323.224,248 480.776,248 "/>
<polyline fill="none" stroke="black" points="323.224,272 480.776,272 "/>
<text text-anchor="start" x="331.224" y="287.2" font-family="Times,serif" font-size="14.00">_layout</text>
<text text-anchor="start" x="331.224" y="301.2" font-family="Times,serif" font-size="14.00">color_params</text>
<text text-anchor="start" x="331.224" y="315.2" font-family="Times,serif" font-size="14.00">set_color</text>
</g>
<!-- Admin::DashboardController -->
<g id="node6" class="node"><title>Admin::DashboardController</title>
<path fill="none" stroke="black" d="M467.569,-343C467.569,-343 624.431,-343 624.431,-343 630.431,-343 636.431,-349 636.431,-355 636.431,-355 636.431,-421 636.431,-421 636.431,-427 630.431,-433 624.431,-433 624.431,-433 467.569,-433 467.569,-433 461.569,-433 455.569,-427 455.569,-421 455.569,-421 455.569,-355 455.569,-355 455.569,-349 461.569,-343 467.569,-343"/>
<text text-anchor="middle" x="546" y="-417.8" font-family="Times,serif" font-size="14.00">Admin::DashboardController</text>
<polyline fill="none" stroke="black" points="455.569,-411 636.431,-411 "/>
<text text-anchor="start" x="463.569" y="-395.8" font-family="Times,serif" font-size="14.00">index</text>
<polyline fill="none" stroke="black" points="455.569,-389 636.431,-389 "/>
<polyline fill="none" stroke="black" points="455.569,-365 636.431,-365 "/>
<text text-anchor="start" x="463.569" y="-349.8" font-family="Times,serif" font-size="14.00">_layout</text>
</g>
<!-- Admin::OrdersController -->
<g id="node7" class="node"><title>Admin::OrdersController</title>
<path fill="none" stroke="black" d="M-311.155,322C-311.155,322 -176.845,322 -176.845,322 -170.845,322 -164.845,316 -164.845,310 -164.845,310 -164.845,132 -164.845,132 -164.845,126 -170.845,120 -176.845,120 -176.845,120 -311.155,120 -311.155,120 -317.155,120 -323.155,126 -323.155,132 -323.155,132 -323.155,310 -323.155,310 -323.155,316 -317.155,322 -311.155,322"/>
<text text-anchor="middle" x="-244" y="135.2" font-family="Times,serif" font-size="14.00">Admin::OrdersController</text>
<polyline fill="none" stroke="black" points="-323.155,142 -164.845,142 "/>
<text text-anchor="start" x="-315.155" y="157.2" font-family="Times,serif" font-size="14.00">create</text>
<text text-anchor="start" x="-315.155" y="171.2" font-family="Times,serif" font-size="14.00">destroy</text>
<text text-anchor="start" x="-315.155" y="185.2" font-family="Times,serif" font-size="14.00">edit</text>
<text text-anchor="start" x="-315.155" y="199.2" font-family="Times,serif" font-size="14.00">index</text>
<text text-anchor="start" x="-315.155" y="213.2" font-family="Times,serif" font-size="14.00">new</text>
<text text-anchor="start" x="-315.155" y="227.2" font-family="Times,serif" font-size="14.00">show</text>
<text text-anchor="start" x="-315.155" y="241.2" font-family="Times,serif" font-size="14.00">update</text>
<polyline fill="none" stroke="black" points="-323.155,248 -164.845,248 "/>
<polyline fill="none" stroke="black" points="-323.155,272 -164.845,272 "/>
<text text-anchor="start" x="-315.155" y="287.2" font-family="Times,serif" font-size="14.00">_layout</text>
<text text-anchor="start" x="-315.155" y="301.2" font-family="Times,serif" font-size="14.00">order_params</text>
<text text-anchor="start" x="-315.155" y="315.2" font-family="Times,serif" font-size="14.00">set_order</text>
</g>
<!-- Admin::RegistrationsController -->
<g id="node8" class="node"><title>Admin::RegistrationsController</title>
<path fill="none" stroke="black" d="M-7.04834,-419C-7.04834,-419 163.048,-419 163.048,-419 169.048,-419 175.048,-425 175.048,-431 175.048,-431 175.048,-499 175.048,-499 175.048,-505 169.048,-511 163.048,-511 163.048,-511 -7.04834,-511 -7.04834,-511 -13.0483,-511 -19.0483,-505 -19.0483,-499 -19.0483,-499 -19.0483,-431 -19.0483,-431 -19.0483,-425 -13.0483,-419 -7.04834,-419"/>
<text text-anchor="middle" x="78" y="-495.8" font-family="Times,serif" font-size="14.00">Admin::RegistrationsController</text>
<polyline fill="none" stroke="black" points="-19.0483,-489 175.048,-489 "/>
<polyline fill="none" stroke="black" points="-19.0483,-465 175.048,-465 "/>
<polyline fill="none" stroke="black" points="-19.0483,-441 175.048,-441 "/>
<text text-anchor="start" x="-11.0483" y="-425.8" font-family="Times,serif" font-size="14.00">_layout</text>
</g>
<!-- Admin::UsersController -->
<g id="node9" class="node"><title>Admin::UsersController</title>
<path fill="none" stroke="black" d="M-311.048,-324C-311.048,-324 -182.952,-324 -182.952,-324 -176.952,-324 -170.952,-330 -170.952,-336 -170.952,-336 -170.952,-514 -170.952,-514 -170.952,-520 -176.952,-526 -182.952,-526 -182.952,-526 -311.048,-526 -311.048,-526 -317.048,-526 -323.048,-520 -323.048,-514 -323.048,-514 -323.048,-336 -323.048,-336 -323.048,-330 -317.048,-324 -311.048,-324"/>
<text text-anchor="middle" x="-247" y="-510.8" font-family="Times,serif" font-size="14.00">Admin::UsersController</text>
<polyline fill="none" stroke="black" points="-323.048,-504 -170.952,-504 "/>
<text text-anchor="start" x="-315.048" y="-488.8" font-family="Times,serif" font-size="14.00">create</text>
<text text-anchor="start" x="-315.048" y="-474.8" font-family="Times,serif" font-size="14.00">destroy</text>
<text text-anchor="start" x="-315.048" y="-460.8" font-family="Times,serif" font-size="14.00">edit</text>
<text text-anchor="start" x="-315.048" y="-446.8" font-family="Times,serif" font-size="14.00">index</text>
<text text-anchor="start" x="-315.048" y="-432.8" font-family="Times,serif" font-size="14.00">new</text>
<text text-anchor="start" x="-315.048" y="-418.8" font-family="Times,serif" font-size="14.00">show</text>
<text text-anchor="start" x="-315.048" y="-404.8" font-family="Times,serif" font-size="14.00">update</text>
<polyline fill="none" stroke="black" points="-323.048,-398 -170.952,-398 "/>
<polyline fill="none" stroke="black" points="-323.048,-374 -170.952,-374 "/>
<text text-anchor="start" x="-315.048" y="-358.8" font-family="Times,serif" font-size="14.00">_layout</text>
<text text-anchor="start" x="-315.048" y="-344.8" font-family="Times,serif" font-size="14.00">set_user</text>
<text text-anchor="start" x="-315.048" y="-330.8" font-family="Times,serif" font-size="14.00">user_params</text>
</g>
<!-- Admin::WelcomeController -->
<g id="node10" class="node"><title>Admin::WelcomeController</title>
<path fill="none" stroke="black" d="M-444.367,455C-444.367,455 -295.633,455 -295.633,455 -289.633,455 -283.633,449 -283.633,443 -283.633,443 -283.633,377 -283.633,377 -283.633,371 -289.633,365 -295.633,365 -295.633,365 -444.367,365 -444.367,365 -450.367,365 -456.367,371 -456.367,377 -456.367,377 -456.367,443 -456.367,443 -456.367,449 -450.367,455 -444.367,455"/>
<text text-anchor="middle" x="-370" y="380.2" font-family="Times,serif" font-size="14.00">Admin::WelcomeController</text>
<polyline fill="none" stroke="black" points="-456.367,387 -283.633,387 "/>
<text text-anchor="start" x="-448.367" y="402.2" font-family="Times,serif" font-size="14.00">index</text>
<polyline fill="none" stroke="black" points="-456.367,409 -283.633,409 "/>
<polyline fill="none" stroke="black" points="-456.367,433 -283.633,433 "/>
<text text-anchor="start" x="-448.367" y="448.2" font-family="Times,serif" font-size="14.00">_layout</text>
</g>
<!-- ApplicationController -->
<g id="node11" class="node"><title>ApplicationController</title>
<path fill="none" stroke="black" d="M-348.966,-191C-348.966,-191 -175.034,-191 -175.034,-191 -169.034,-191 -163.034,-197 -163.034,-203 -163.034,-203 -163.034,-281 -163.034,-281 -163.034,-287 -169.034,-293 -175.034,-293 -175.034,-293 -348.966,-293 -348.966,-293 -354.966,-293 -360.966,-287 -360.966,-281 -360.966,-281 -360.966,-203 -360.966,-203 -360.966,-197 -354.966,-191 -348.966,-191"/>
<text text-anchor="middle" x="-262" y="-277.8" font-family="Times,serif" font-size="14.00">ApplicationController</text>
<polyline fill="none" stroke="black" points="-360.966,-271 -163.034,-271 "/>
<text text-anchor="start" x="-352.966" y="-255.8" font-family="Times,serif" font-size="14.00">current_order</text>
<text text-anchor="start" x="-352.966" y="-241.8" font-family="Times,serif" font-size="14.00">set_locale</text>
<polyline fill="none" stroke="black" points="-360.966,-235 -163.034,-235 "/>
<text text-anchor="start" x="-352.966" y="-219.8" font-family="Times,serif" font-size="14.00">configure_permitted_parameters</text>
<polyline fill="none" stroke="black" points="-360.966,-213 -163.034,-213 "/>
<text text-anchor="start" x="-352.966" y="-197.8" font-family="Times,serif" font-size="14.00">_layout</text>
</g>
<!-- Creator::BraceletsController -->
<g id="node12" class="node"><title>Creator::BraceletsController</title>
<path fill="none" stroke="black" d="M-82.6934,151C-82.6934,151 68.6934,151 68.6934,151 74.6934,151 80.6934,145 80.6934,139 80.6934,139 80.6934,-123 80.6934,-123 80.6934,-129 74.6934,-135 68.6934,-135 68.6934,-135 -82.6934,-135 -82.6934,-135 -88.6934,-135 -94.6934,-129 -94.6934,-123 -94.6934,-123 -94.6934,139 -94.6934,139 -94.6934,145 -88.6934,151 -82.6934,151"/>
<text text-anchor="middle" x="-7" y="-119.8" font-family="Times,serif" font-size="14.00">Creator::BraceletsController</text>
<polyline fill="none" stroke="black" points="-94.6934,-113 80.6934,-113 "/>
<text text-anchor="start" x="-86.6934" y="-97.8" font-family="Times,serif" font-size="14.00">change</text>
<text text-anchor="start" x="-86.6934" y="-83.8" font-family="Times,serif" font-size="14.00">changeentiretable</text>
<text text-anchor="start" x="-86.6934" y="-69.8" font-family="Times,serif" font-size="14.00">changerow</text>
<text text-anchor="start" x="-86.6934" y="-55.8" font-family="Times,serif" font-size="14.00">create</text>
<text text-anchor="start" x="-86.6934" y="-41.8" font-family="Times,serif" font-size="14.00">destroy</text>
<text text-anchor="start" x="-86.6934" y="-27.8" font-family="Times,serif" font-size="14.00">edit</text>
<text text-anchor="start" x="-86.6934" y="-13.8" font-family="Times,serif" font-size="14.00">index</text>
<text text-anchor="start" x="-86.6934" y="0.2" font-family="Times,serif" font-size="14.00">new</text>
<text text-anchor="start" x="-86.6934" y="14.2" font-family="Times,serif" font-size="14.00">pallete</text>
<text text-anchor="start" x="-86.6934" y="28.2" font-family="Times,serif" font-size="14.00">show</text>
<text text-anchor="start" x="-86.6934" y="42.2" font-family="Times,serif" font-size="14.00">update</text>
<polyline fill="none" stroke="black" points="-94.6934,49 80.6934,49 "/>
<polyline fill="none" stroke="black" points="-94.6934,73 80.6934,73 "/>
<text text-anchor="start" x="-86.6934" y="88.2" font-family="Times,serif" font-size="14.00">_layout</text>
<text text-anchor="start" x="-86.6934" y="102.2" font-family="Times,serif" font-size="14.00">bracelet_params</text>
<text text-anchor="start" x="-86.6934" y="116.2" font-family="Times,serif" font-size="14.00">set_bracelet</text>
<text text-anchor="start" x="-86.6934" y="130.2" font-family="Times,serif" font-size="14.00">set_color_position</text>
<text text-anchor="start" x="-86.6934" y="144.2" font-family="Times,serif" font-size="14.00">set_current_color</text>
</g>
<!-- Creator::CartsController -->
<g id="node13" class="node"><title>Creator::CartsController</title>
<path fill="none" stroke="black" d="M486.572,-476C486.572,-476 615.428,-476 615.428,-476 621.428,-476 627.428,-482 627.428,-488 627.428,-488 627.428,-554 627.428,-554 627.428,-560 621.428,-566 615.428,-566 615.428,-566 486.572,-566 486.572,-566 480.572,-566 474.572,-560 474.572,-554 474.572,-554 474.572,-488 474.572,-488 474.572,-482 480.572,-476 486.572,-476"/>
<text text-anchor="middle" x="551" y="-550.8" font-family="Times,serif" font-size="14.00">Creator::CartsController</text>
<polyline fill="none" stroke="black" points="474.572,-544 627.428,-544 "/>
<text text-anchor="start" x="482.572" y="-528.8" font-family="Times,serif" font-size="14.00">show</text>
<polyline fill="none" stroke="black" points="474.572,-522 627.428,-522 "/>
<polyline fill="none" stroke="black" points="474.572,-498 627.428,-498 "/>
<text text-anchor="start" x="482.572" y="-482.8" font-family="Times,serif" font-size="14.00">_layout</text>
</g>
<!-- Creator::CollectionsController -->
<g id="node14" class="node"><title>Creator::CollectionsController</title>
<path fill="none" stroke="black" d="M-310.538,75C-310.538,75 -147.462,75 -147.462,75 -141.462,75 -135.462,69 -135.462,63 -135.462,63 -135.462,-115 -135.462,-115 -135.462,-121 -141.462,-127 -147.462,-127 -147.462,-127 -310.538,-127 -310.538,-127 -316.538,-127 -322.538,-121 -322.538,-115 -322.538,-115 -322.538,63 -322.538,63 -322.538,69 -316.538,75 -310.538,75"/>
<text text-anchor="middle" x="-229" y="-111.8" font-family="Times,serif" font-size="14.00">Creator::CollectionsController</text>
<polyline fill="none" stroke="black" points="-322.538,-105 -135.462,-105 "/>
<text text-anchor="start" x="-314.538" y="-89.8" font-family="Times,serif" font-size="14.00">create</text>
<text text-anchor="start" x="-314.538" y="-75.8" font-family="Times,serif" font-size="14.00">destroy</text>
<text text-anchor="start" x="-314.538" y="-61.8" font-family="Times,serif" font-size="14.00">edit</text>
<text text-anchor="start" x="-314.538" y="-47.8" font-family="Times,serif" font-size="14.00">index</text>
<text text-anchor="start" x="-314.538" y="-33.8" font-family="Times,serif" font-size="14.00">new</text>
<text text-anchor="start" x="-314.538" y="-19.8" font-family="Times,serif" font-size="14.00">show</text>
<text text-anchor="start" x="-314.538" y="-5.8" font-family="Times,serif" font-size="14.00">update</text>
<polyline fill="none" stroke="black" points="-322.538,1 -135.462,1 "/>
<polyline fill="none" stroke="black" points="-322.538,25 -135.462,25 "/>
<text text-anchor="start" x="-314.538" y="40.2" font-family="Times,serif" font-size="14.00">_layout</text>
<text text-anchor="start" x="-314.538" y="54.2" font-family="Times,serif" font-size="14.00">collection_params</text>
<text text-anchor="start" x="-314.538" y="68.2" font-family="Times,serif" font-size="14.00">set_collection</text>
</g>
<!-- Creator::ColorPositionsController -->
<g id="node15" class="node"><title>Creator::ColorPositionsController</title>
<path fill="none" stroke="black" d="M-121.272,-172C-121.272,-172 61.2725,-172 61.2725,-172 67.2725,-172 73.2725,-178 73.2725,-184 73.2725,-184 73.2725,-362 73.2725,-362 73.2725,-368 67.2725,-374 61.2725,-374 61.2725,-374 -121.272,-374 -121.272,-374 -127.272,-374 -133.272,-368 -133.272,-362 -133.272,-362 -133.272,-184 -133.272,-184 -133.272,-178 -127.272,-172 -121.272,-172"/>
<text text-anchor="middle" x="-30" y="-358.8" font-family="Times,serif" font-size="14.00">Creator::ColorPositionsController</text>
<polyline fill="none" stroke="black" points="-133.272,-352 73.2725,-352 "/>
<text text-anchor="start" x="-125.272" y="-336.8" font-family="Times,serif" font-size="14.00">create</text>
<text text-anchor="start" x="-125.272" y="-322.8" font-family="Times,serif" font-size="14.00">destroy</text>
<text text-anchor="start" x="-125.272" y="-308.8" font-family="Times,serif" font-size="14.00">edit</text>
<text text-anchor="start" x="-125.272" y="-294.8" font-family="Times,serif" font-size="14.00">index</text>
<text text-anchor="start" x="-125.272" y="-280.8" font-family="Times,serif" font-size="14.00">new</text>
<text text-anchor="start" x="-125.272" y="-266.8" font-family="Times,serif" font-size="14.00">show</text>
<text text-anchor="start" x="-125.272" y="-252.8" font-family="Times,serif" font-size="14.00">update</text>
<polyline fill="none" stroke="black" points="-133.272,-246 73.2725,-246 "/>
<polyline fill="none" stroke="black" points="-133.272,-222 73.2725,-222 "/>
<text text-anchor="start" x="-125.272" y="-206.8" font-family="Times,serif" font-size="14.00">_layout</text>
<text text-anchor="start" x="-125.272" y="-192.8" font-family="Times,serif" font-size="14.00">color_position_params</text>
<text text-anchor="start" x="-125.272" y="-178.8" font-family="Times,serif" font-size="14.00">set_color_position</text>
</g>
<!-- Creator::ColorsController -->
<g id="node16" class="node"><title>Creator::ColorsController</title>
<path fill="none" stroke="black" d="M467.679,-172C467.679,-172 604.321,-172 604.321,-172 610.321,-172 616.321,-178 616.321,-184 616.321,-184 616.321,-292 616.321,-292 616.321,-298 610.321,-304 604.321,-304 604.321,-304 467.679,-304 467.679,-304 461.679,-304 455.679,-298 455.679,-292 455.679,-292 455.679,-184 455.679,-184 455.679,-178 461.679,-172 467.679,-172"/>
<text text-anchor="middle" x="536" y="-288.8" font-family="Times,serif" font-size="14.00">Creator::ColorsController</text>
<polyline fill="none" stroke="black" points="455.679,-282 616.321,-282 "/>
<text text-anchor="start" x="463.679" y="-266.8" font-family="Times,serif" font-size="14.00">index</text>
<text text-anchor="start" x="463.679" y="-252.8" font-family="Times,serif" font-size="14.00">show</text>
<polyline fill="none" stroke="black" points="455.679,-246 616.321,-246 "/>
<polyline fill="none" stroke="black" points="455.679,-222 616.321,-222 "/>
<text text-anchor="start" x="463.679" y="-206.8" font-family="Times,serif" font-size="14.00">_layout</text>
<text text-anchor="start" x="463.679" y="-192.8" font-family="Times,serif" font-size="14.00">color_params</text>
<text text-anchor="start" x="463.679" y="-178.8" font-family="Times,serif" font-size="14.00">set_color</text>
</g>
<!-- Creator::CreatorController -->
<g id="node17" class="node"><title>Creator::CreatorController</title>
<path fill="none" stroke="black" d="M259.358,-457C259.358,-457 400.642,-457 400.642,-457 406.642,-457 412.642,-463 412.642,-469 412.642,-469 412.642,-535 412.642,-535 412.642,-541 406.642,-547 400.642,-547 400.642,-547 259.358,-547 259.358,-547 253.358,-547 247.358,-541 247.358,-535 247.358,-535 247.358,-469 247.358,-469 247.358,-463 253.358,-457 259.358,-457"/>
<text text-anchor="middle" x="330" y="-531.8" font-family="Times,serif" font-size="14.00">Creator::CreatorController</text>
<polyline fill="none" stroke="black" points="247.358,-525 412.642,-525 "/>
<text text-anchor="start" x="255.358" y="-509.8" font-family="Times,serif" font-size="14.00">authorize</text>
<polyline fill="none" stroke="black" points="247.358,-503 412.642,-503 "/>
<polyline fill="none" stroke="black" points="247.358,-479 412.642,-479 "/>
<text text-anchor="start" x="255.358" y="-463.8" font-family="Times,serif" font-size="14.00">_layout</text>
</g>
<!-- Creator::OrderItemsController -->
<g id="node18" class="node"><title>Creator::OrderItemsController</title>
<path fill="none" stroke="black" d="M-120.528,322C-120.528,322 42.5278,322 42.5278,322 48.5278,322 54.5278,316 54.5278,310 54.5278,310 54.5278,202 54.5278,202 54.5278,196 48.5278,190 42.5278,190 42.5278,190 -120.528,190 -120.528,190 -126.528,190 -132.528,196 -132.528,202 -132.528,202 -132.528,310 -132.528,310 -132.528,316 -126.528,322 -120.528,322"/>
<text text-anchor="middle" x="-39" y="205.2" font-family="Times,serif" font-size="14.00">Creator::OrderItemsController</text>
<polyline fill="none" stroke="black" points="-132.528,212 54.5278,212 "/>
<text text-anchor="start" x="-124.528" y="227.2" font-family="Times,serif" font-size="14.00">create</text>
<text text-anchor="start" x="-124.528" y="241.2" font-family="Times,serif" font-size="14.00">destroy</text>
<text text-anchor="start" x="-124.528" y="255.2" font-family="Times,serif" font-size="14.00">order_item_params</text>
<text text-anchor="start" x="-124.528" y="269.2" font-family="Times,serif" font-size="14.00">update</text>
<polyline fill="none" stroke="black" points="-132.528,276 54.5278,276 "/>
<polyline fill="none" stroke="black" points="-132.528,300 54.5278,300 "/>
<text text-anchor="start" x="-124.528" y="315.2" font-family="Times,serif" font-size="14.00">_layout</text>
</g>
<!-- Creator::OrdersController -->
<g id="node19" class="node"><title>Creator::OrdersController</title>
<path fill="none" stroke="black" d="M335.3,75C335.3,75 472.7,75 472.7,75 478.7,75 484.7,69 484.7,63 484.7,63 484.7,-115 484.7,-115 484.7,-121 478.7,-127 472.7,-127 472.7,-127 335.3,-127 335.3,-127 329.3,-127 323.3,-121 323.3,-115 323.3,-115 323.3,63 323.3,63 323.3,69 329.3,75 335.3,75"/>
<text text-anchor="middle" x="404" y="-111.8" font-family="Times,serif" font-size="14.00">Creator::OrdersController</text>
<polyline fill="none" stroke="black" points="323.3,-105 484.7,-105 "/>
<text text-anchor="start" x="331.3" y="-89.8" font-family="Times,serif" font-size="14.00">create</text>
<text text-anchor="start" x="331.3" y="-75.8" font-family="Times,serif" font-size="14.00">destroy</text>
<text text-anchor="start" x="331.3" y="-61.8" font-family="Times,serif" font-size="14.00">edit</text>
<text text-anchor="start" x="331.3" y="-47.8" font-family="Times,serif" font-size="14.00">index</text>
<text text-anchor="start" x="331.3" y="-33.8" font-family="Times,serif" font-size="14.00">new</text>
<text text-anchor="start" x="331.3" y="-19.8" font-family="Times,serif" font-size="14.00">show</text>
<text text-anchor="start" x="331.3" y="-5.8" font-family="Times,serif" font-size="14.00">update</text>
<polyline fill="none" stroke="black" points="323.3,1 484.7,1 "/>
<polyline fill="none" stroke="black" points="323.3,25 484.7,25 "/>
<text text-anchor="start" x="331.3" y="40.2" font-family="Times,serif" font-size="14.00">_layout</text>
<text text-anchor="start" x="331.3" y="54.2" font-family="Times,serif" font-size="14.00">order_params</text>
<text text-anchor="start" x="331.3" y="68.2" font-family="Times,serif" font-size="14.00">set_order</text>
</g>
<!-- Creator::RegistrationsController -->
<g id="node20" class="node"><title>Creator::RegistrationsController</title>
<path fill="none" stroke="black" d="M107.407,436C107.407,436 280.593,436 280.593,436 286.593,436 292.593,430 292.593,424 292.593,424 292.593,356 292.593,356 292.593,350 286.593,344 280.593,344 280.593,344 107.407,344 107.407,344 101.407,344 95.4067,350 95.4067,356 95.4067,356 95.4067,424 95.4067,424 95.4067,430 101.407,436 107.407,436"/>
<text text-anchor="middle" x="194" y="359.2" font-family="Times,serif" font-size="14.00">Creator::RegistrationsController</text>
<polyline fill="none" stroke="black" points="95.4067,366 292.593,366 "/>
<polyline fill="none" stroke="black" points="95.4067,390 292.593,390 "/>
<polyline fill="none" stroke="black" points="95.4067,414 292.593,414 "/>
<text text-anchor="start" x="103.407" y="429.2" font-family="Times,serif" font-size="14.00">_layout</text>
</g>
<!-- Creator::UsersController -->
<g id="node21" class="node"><title>Creator::UsersController</title>
<path fill="none" stroke="black" d="M126.407,303C126.407,303 257.593,303 257.593,303 263.593,303 269.593,297 269.593,291 269.593,291 269.593,155 269.593,155 269.593,149 263.593,143 257.593,143 257.593,143 126.407,143 126.407,143 120.407,143 114.407,149 114.407,155 114.407,155 114.407,291 114.407,291 114.407,297 120.407,303 126.407,303"/>
<text text-anchor="middle" x="192" y="158.2" font-family="Times,serif" font-size="14.00">Creator::UsersController</text>
<polyline fill="none" stroke="black" points="114.407,165 269.593,165 "/>
<text text-anchor="start" x="122.407" y="180.2" font-family="Times,serif" font-size="14.00">create</text>
<text text-anchor="start" x="122.407" y="194.2" font-family="Times,serif" font-size="14.00">edit</text>
<text text-anchor="start" x="122.407" y="208.2" font-family="Times,serif" font-size="14.00">show</text>
<text text-anchor="start" x="122.407" y="222.2" font-family="Times,serif" font-size="14.00">update</text>
<polyline fill="none" stroke="black" points="114.407,229 269.593,229 "/>
<polyline fill="none" stroke="black" points="114.407,253 269.593,253 "/>
<text text-anchor="start" x="122.407" y="268.2" font-family="Times,serif" font-size="14.00">_layout</text>
<text text-anchor="start" x="122.407" y="282.2" font-family="Times,serif" font-size="14.00">set_user</text>
<text text-anchor="start" x="122.407" y="296.2" font-family="Times,serif" font-size="14.00">user_params</text>
</g>
<!-- WelcomeController -->
<g id="node22" class="node"><title>WelcomeController</title>
<path fill="none" stroke="black" d="M-482.033,-495C-482.033,-495 -379.967,-495 -379.967,-495 -373.967,-495 -367.967,-501 -367.967,-507 -367.967,-507 -367.967,-573 -367.967,-573 -367.967,-579 -373.967,-585 -379.967,-585 -379.967,-585 -482.033,-585 -482.033,-585 -488.033,-585 -494.033,-579 -494.033,-573 -494.033,-573 -494.033,-507 -494.033,-507 -494.033,-501 -488.033,-495 -482.033,-495"/>
<text text-anchor="middle" x="-431" y="-569.8" font-family="Times,serif" font-size="14.00">WelcomeController</text>
<polyline fill="none" stroke="black" points="-494.033,-563 -367.967,-563 "/>
<text text-anchor="start" x="-486.033" y="-547.8" font-family="Times,serif" font-size="14.00">index</text>
<polyline fill="none" stroke="black" points="-494.033,-541 -367.967,-541 "/>
<polyline fill="none" stroke="black" points="-494.033,-517 -367.967,-517 "/>
<text text-anchor="start" x="-486.033" y="-501.8" font-family="Times,serif" font-size="14.00">_layout</text>
</g>
</g>
</svg>
