<?xml version="1.0" encoding="UTF-8" standalone="no"?>
<!DOCTYPE svg PUBLIC "-//W3C//DTD SVG 1.1//EN"
 "http://www.w3.org/Graphics/SVG/1.1/DTD/svg11.dtd">
<!-- Generated by graphviz version 2.38.0 (20140413.2041)
 -->
<!-- Title: models_diagram Pages: 1 -->
<svg width="834pt" height="1007pt"
 viewBox="0.00 0.00 834.19 1007.00" xmlns="http://www.w3.org/2000/svg" xmlns:xlink="http://www.w3.org/1999/xlink">
<g id="graph0" class="graph" transform="scale(1 1) rotate(0) translate(4 1003)">
<title>models_diagram</title>
<polygon fill="white" stroke="none" points="-4,4 -4,-1003 830.193,-1003 830.193,4 -4,4"/>
<!-- _diagram_info -->
<g id="node1" class="node"><title>_diagram_info</title>
<text text-anchor="start" x="8" y="-900.6" font-family="Times,serif" font-size="13.00">Models diagram</text>
<text text-anchor="start" x="8" y="-887.6" font-family="Times,serif" font-size="13.00">Date: May 11 2015 &#45; 11:08</text>
<text text-anchor="start" x="8" y="-874.6" font-family="Times,serif" font-size="13.00">Migration version: 20150510174027</text>
<text text-anchor="start" x="8" y="-861.6" font-family="Times,serif" font-size="13.00">Generated by RailRoady 1.3.0</text>
<text text-anchor="start" x="8" y="-848.6" font-family="Times,serif" font-size="13.00">http://railroady.prestonlee.com</text>
</g>
<!-- Admin -->
<g id="node2" class="node"><title>Admin</title>
<path fill="none" stroke="black" d="M237.41,-772.5C237.41,-772.5 417.966,-772.5 417.966,-772.5 423.966,-772.5 429.966,-778.5 429.966,-784.5 429.966,-784.5 429.966,-972.5 429.966,-972.5 429.966,-978.5 423.966,-984.5 417.966,-984.5 417.966,-984.5 237.41,-984.5 237.41,-984.5 231.41,-984.5 225.41,-978.5 225.41,-972.5 225.41,-972.5 225.41,-784.5 225.41,-784.5 225.41,-778.5 231.41,-772.5 237.41,-772.5"/>
<text text-anchor="middle" x="327.688" y="-969.3" font-family="Times,serif" font-size="14.00">Admin</text>
<polyline fill="none" stroke="black" points="225.41,-962.5 429.966,-962.5 "/>
<text text-anchor="start" x="233.41" y="-947.3" font-family="Times,serif" font-size="14.00">id :integer</text>
<text text-anchor="start" x="233.41" y="-933.3" font-family="Times,serif" font-size="14.00">email :string</text>
<text text-anchor="start" x="233.41" y="-919.3" font-family="Times,serif" font-size="14.00">encrypted_password :string</text>
<text text-anchor="start" x="233.41" y="-905.3" font-family="Times,serif" font-size="14.00">reset_password_token :string</text>
<text text-anchor="start" x="233.41" y="-891.3" font-family="Times,serif" font-size="14.00">reset_password_sent_at :datetime</text>
<text text-anchor="start" x="233.41" y="-877.3" font-family="Times,serif" font-size="14.00">remember_created_at :datetime</text>
<text text-anchor="start" x="233.41" y="-863.3" font-family="Times,serif" font-size="14.00">sign_in_count :integer</text>
<text text-anchor="start" x="233.41" y="-849.3" font-family="Times,serif" font-size="14.00">current_sign_in_at :datetime</text>
<text text-anchor="start" x="233.41" y="-835.3" font-family="Times,serif" font-size="14.00">last_sign_in_at :datetime</text>
<text text-anchor="start" x="233.41" y="-821.3" font-family="Times,serif" font-size="14.00">current_sign_in_ip :string</text>
<text text-anchor="start" x="233.41" y="-807.3" font-family="Times,serif" font-size="14.00">last_sign_in_ip :string</text>
<text text-anchor="start" x="233.41" y="-793.3" font-family="Times,serif" font-size="14.00">created_at :datetime</text>
<text text-anchor="start" x="233.41" y="-779.3" font-family="Times,serif" font-size="14.00">updated_at :datetime</text>
</g>
<!-- Bracelet -->
<g id="node3" class="node"><title>Bracelet</title>
<path fill="none" stroke="black" d="M606.172,-330.5C606.172,-330.5 743.203,-330.5 743.203,-330.5 749.203,-330.5 755.203,-336.5 755.203,-342.5 755.203,-342.5 755.203,-502.5 755.203,-502.5 755.203,-508.5 749.203,-514.5 743.203,-514.5 743.203,-514.5 606.172,-514.5 606.172,-514.5 600.172,-514.5 594.172,-508.5 594.172,-502.5 594.172,-502.5 594.172,-342.5 594.172,-342.5 594.172,-336.5 600.172,-330.5 606.172,-330.5"/>
<text text-anchor="middle" x="674.688" y="-499.3" font-family="Times,serif" font-size="14.00">Bracelet</text>
<polyline fill="none" stroke="black" points="594.172,-492.5 755.203,-492.5 "/>
<text text-anchor="start" x="602.172" y="-477.3" font-family="Times,serif" font-size="14.00">id :integer</text>
<text text-anchor="start" x="602.172" y="-463.3" font-family="Times,serif" font-size="14.00">clasp :string</text>
<text text-anchor="start" x="602.172" y="-449.3" font-family="Times,serif" font-size="14.00">casp :string</text>
<text text-anchor="start" x="602.172" y="-435.3" font-family="Times,serif" font-size="14.00">color_position_id :integer</text>
<text text-anchor="start" x="602.172" y="-421.3" font-family="Times,serif" font-size="14.00">price :integer</text>
<text text-anchor="start" x="602.172" y="-407.3" font-family="Times,serif" font-size="14.00">created_at :datetime</text>
<text text-anchor="start" x="602.172" y="-393.3" font-family="Times,serif" font-size="14.00">updated_at :datetime</text>
<text text-anchor="start" x="602.172" y="-379.3" font-family="Times,serif" font-size="14.00">height :integer</text>
<text text-anchor="start" x="602.172" y="-365.3" font-family="Times,serif" font-size="14.00">row_count :integer</text>
<text text-anchor="start" x="602.172" y="-351.3" font-family="Times,serif" font-size="14.00">draft :boolean</text>
<text text-anchor="start" x="602.172" y="-337.3" font-family="Times,serif" font-size="14.00">collection_id :integer</text>
</g>
<!-- Color -->
<g id="node5" class="node"><title>Color</title>
<path fill="none" stroke="black" d="M705.182,-158.5C705.182,-158.5 814.193,-158.5 814.193,-158.5 820.193,-158.5 826.193,-164.5 826.193,-170.5 826.193,-170.5 826.193,-274.5 826.193,-274.5 826.193,-280.5 820.193,-286.5 814.193,-286.5 814.193,-286.5 705.182,-286.5 705.182,-286.5 699.182,-286.5 693.182,-280.5 693.182,-274.5 693.182,-274.5 693.182,-170.5 693.182,-170.5 693.182,-164.5 699.182,-158.5 705.182,-158.5"/>
<text text-anchor="middle" x="759.688" y="-271.3" font-family="Times,serif" font-size="14.00">Color</text>
<polyline fill="none" stroke="black" points="693.182,-264.5 826.193,-264.5 "/>
<text text-anchor="start" x="701.182" y="-249.3" font-family="Times,serif" font-size="14.00">id :integer</text>
<text text-anchor="start" x="701.182" y="-235.3" font-family="Times,serif" font-size="14.00">name :string</text>
<text text-anchor="start" x="701.182" y="-221.3" font-family="Times,serif" font-size="14.00">picture :string</text>
<text text-anchor="start" x="701.182" y="-207.3" font-family="Times,serif" font-size="14.00">created_at :datetime</text>
<text text-anchor="start" x="701.182" y="-193.3" font-family="Times,serif" font-size="14.00">updated_at :datetime</text>
<text text-anchor="start" x="701.182" y="-179.3" font-family="Times,serif" font-size="14.00">hex :string</text>
<text text-anchor="start" x="701.182" y="-165.3" font-family="Times,serif" font-size="14.00">available :boolean</text>
</g>
<!-- Bracelet&#45;&gt;Color -->
<g id="edge3" class="edge"><title>Bracelet&#45;&gt;Color</title>
<path fill="none" stroke="#74ec4d" d="M717.863,-320.928C721.48,-312.501 725.091,-304.09 728.591,-295.938"/>
<polygon fill="#74ec4d" stroke="#74ec4d" points="717.774,-321.135 709.694,-328.549 715.801,-325.729 713.829,-330.324 713.829,-330.324 713.829,-330.324 715.801,-325.729 717.964,-332.099 717.774,-321.135 717.774,-321.135"/>
<polygon fill="#74ec4d" stroke="#74ec4d" points="728.696,-295.691 736.776,-288.278 730.669,-291.097 732.641,-286.502 732.641,-286.502 732.641,-286.502 730.669,-291.097 728.506,-284.727 728.696,-295.691 728.696,-295.691"/>
</g>
<!-- ColorPosition -->
<g id="node6" class="node"><title>ColorPosition</title>
<path fill="none" stroke="black" d="M657.182,-0.5C657.182,-0.5 766.193,-0.5 766.193,-0.5 772.193,-0.5 778.193,-6.5 778.193,-12.5 778.193,-12.5 778.193,-102.5 778.193,-102.5 778.193,-108.5 772.193,-114.5 766.193,-114.5 766.193,-114.5 657.182,-114.5 657.182,-114.5 651.182,-114.5 645.182,-108.5 645.182,-102.5 645.182,-102.5 645.182,-12.5 645.182,-12.5 645.182,-6.5 651.182,-0.5 657.182,-0.5"/>
<text text-anchor="middle" x="711.688" y="-99.3" font-family="Times,serif" font-size="14.00">ColorPosition</text>
<polyline fill="none" stroke="black" points="645.182,-92.5 778.193,-92.5 "/>
<text text-anchor="start" x="653.182" y="-77.3" font-family="Times,serif" font-size="14.00">id :integer</text>
<text text-anchor="start" x="653.182" y="-63.3" font-family="Times,serif" font-size="14.00">color_id :integer</text>
<text text-anchor="start" x="653.182" y="-49.3" font-family="Times,serif" font-size="14.00">position :integer</text>
<text text-anchor="start" x="653.182" y="-35.3" font-family="Times,serif" font-size="14.00">created_at :datetime</text>
<text text-anchor="start" x="653.182" y="-21.3" font-family="Times,serif" font-size="14.00">updated_at :datetime</text>
<text text-anchor="start" x="653.182" y="-7.3" font-family="Times,serif" font-size="14.00">bracelet_id :integer</text>
</g>
<!-- Bracelet&#45;&gt;ColorPosition -->
<g id="edge1" class="edge"><title>Bracelet&#45;&gt;ColorPosition</title>
<path fill="none" stroke="#8307e6" d="M671.831,-322.3C671.9,-270.87 674.408,-207.218 683.688,-151 685.117,-142.34 687.132,-133.357 689.432,-124.544"/>
<ellipse fill="none" stroke="#8307e6" cx="671.835" cy="-326.447" rx="4" ry="4"/>
<polygon fill="#8307e6" stroke="#8307e6" points="689.489,-124.336 696.475,-115.883 690.813,-119.514 692.136,-114.692 692.136,-114.692 692.136,-114.692 690.813,-119.514 687.796,-113.502 689.489,-124.336 689.489,-124.336"/>
</g>
<!-- OrderItem -->
<g id="node8" class="node"><title>OrderItem</title>
<path fill="none" stroke="black" d="M505.182,-151.5C505.182,-151.5 614.193,-151.5 614.193,-151.5 620.193,-151.5 626.193,-157.5 626.193,-163.5 626.193,-163.5 626.193,-281.5 626.193,-281.5 626.193,-287.5 620.193,-293.5 614.193,-293.5 614.193,-293.5 505.182,-293.5 505.182,-293.5 499.182,-293.5 493.182,-287.5 493.182,-281.5 493.182,-281.5 493.182,-163.5 493.182,-163.5 493.182,-157.5 499.182,-151.5 505.182,-151.5"/>
<text text-anchor="middle" x="559.688" y="-278.3" font-family="Times,serif" font-size="14.00">OrderItem</text>
<polyline fill="none" stroke="black" points="493.182,-271.5 626.193,-271.5 "/>
<text text-anchor="start" x="501.182" y="-256.3" font-family="Times,serif" font-size="14.00">id :integer</text>
<text text-anchor="start" x="501.182" y="-242.3" font-family="Times,serif" font-size="14.00">order_id :integer</text>
<text text-anchor="start" x="501.182" y="-228.3" font-family="Times,serif" font-size="14.00">unit_price :decimal</text>
<text text-anchor="start" x="501.182" y="-214.3" font-family="Times,serif" font-size="14.00">quantity :integer</text>
<text text-anchor="start" x="501.182" y="-200.3" font-family="Times,serif" font-size="14.00">total_price :decimal</text>
<text text-anchor="start" x="501.182" y="-186.3" font-family="Times,serif" font-size="14.00">created_at :datetime</text>
<text text-anchor="start" x="501.182" y="-172.3" font-family="Times,serif" font-size="14.00">updated_at :datetime</text>
<text text-anchor="start" x="501.182" y="-158.3" font-family="Times,serif" font-size="14.00">bracelet_id :integer</text>
</g>
<!-- Bracelet&#45;&gt;OrderItem -->
<g id="edge2" class="edge"><title>Bracelet&#45;&gt;OrderItem</title>
<path fill="none" stroke="#c291a9" d="M617.713,-323.404C613.627,-316.369 609.537,-309.327 605.526,-302.422"/>
<ellipse fill="none" stroke="#c291a9" cx="619.723" cy="-326.865" rx="4.00002" ry="4.00002"/>
<polygon fill="#c291a9" stroke="#c291a9" points="605.517,-302.406 604.386,-291.499 603.006,-298.082 600.495,-293.759 600.495,-293.759 600.495,-293.759 603.006,-298.082 596.603,-296.019 605.517,-302.406 605.517,-302.406"/>
</g>
<!-- Collection -->
<g id="node4" class="node"><title>Collection</title>
<path fill="none" stroke="black" d="M633.182,-593.5C633.182,-593.5 742.193,-593.5 742.193,-593.5 748.193,-593.5 754.193,-599.5 754.193,-605.5 754.193,-605.5 754.193,-667.5 754.193,-667.5 754.193,-673.5 748.193,-679.5 742.193,-679.5 742.193,-679.5 633.182,-679.5 633.182,-679.5 627.182,-679.5 621.182,-673.5 621.182,-667.5 621.182,-667.5 621.182,-605.5 621.182,-605.5 621.182,-599.5 627.182,-593.5 633.182,-593.5"/>
<text text-anchor="middle" x="687.688" y="-664.3" font-family="Times,serif" font-size="14.00">Collection</text>
<polyline fill="none" stroke="black" points="621.182,-657.5 754.193,-657.5 "/>
<text text-anchor="start" x="629.182" y="-642.3" font-family="Times,serif" font-size="14.00">id :integer</text>
<text text-anchor="start" x="629.182" y="-628.3" font-family="Times,serif" font-size="14.00">user_id :integer</text>
<text text-anchor="start" x="629.182" y="-614.3" font-family="Times,serif" font-size="14.00">created_at :datetime</text>
<text text-anchor="start" x="629.182" y="-600.3" font-family="Times,serif" font-size="14.00">updated_at :datetime</text>
</g>
<!-- Collection&#45;&gt;Bracelet -->
<g id="edge4" class="edge"><title>Collection&#45;&gt;Bracelet</title>
<path fill="none" stroke="#2cd03e" d="M684.602,-585.182C683.489,-567.033 682.19,-545.842 680.905,-524.892"/>
<ellipse fill="none" stroke="#2cd03e" cx="684.859" cy="-589.37" rx="4" ry="4"/>
<polygon fill="#2cd03e" stroke="#2cd03e" points="680.889,-524.623 684.768,-514.366 680.583,-519.632 680.277,-514.642 680.277,-514.642 680.277,-514.642 680.583,-519.632 675.785,-514.917 680.889,-524.623 680.889,-524.623"/>
</g>
<!-- Color&#45;&gt;ColorPosition -->
<g id="edge5" class="edge"><title>Color&#45;&gt;ColorPosition</title>
<path fill="none" stroke="#59aa57" d="M738.82,-150.637C736.248,-141.903 733.628,-133.004 731.079,-124.349"/>
<ellipse fill="none" stroke="#59aa57" cx="740" cy="-154.643" rx="4.00001" ry="4.00001"/>
<polygon fill="#59aa57" stroke="#59aa57" points="731.063,-124.296 732.555,-113.432 729.651,-119.5 728.238,-114.703 728.238,-114.703 728.238,-114.703 729.651,-119.5 723.922,-115.974 731.063,-124.296 731.063,-124.296"/>
</g>
<!-- Order -->
<g id="node7" class="node"><title>Order</title>
<path fill="none" stroke="black" d="M466.4,-551.5C466.4,-551.5 590.976,-551.5 590.976,-551.5 596.976,-551.5 602.976,-557.5 602.976,-563.5 602.976,-563.5 602.976,-709.5 602.976,-709.5 602.976,-715.5 596.976,-721.5 590.976,-721.5 590.976,-721.5 466.4,-721.5 466.4,-721.5 460.4,-721.5 454.4,-715.5 454.4,-709.5 454.4,-709.5 454.4,-563.5 454.4,-563.5 454.4,-557.5 460.4,-551.5 466.4,-551.5"/>
<text text-anchor="middle" x="528.688" y="-706.3" font-family="Times,serif" font-size="14.00">Order</text>
<polyline fill="none" stroke="black" points="454.4,-699.5 602.976,-699.5 "/>
<text text-anchor="start" x="462.4" y="-684.3" font-family="Times,serif" font-size="14.00">id :integer</text>
<text text-anchor="start" x="462.4" y="-670.3" font-family="Times,serif" font-size="14.00">price :integer</text>
<text text-anchor="start" x="462.4" y="-656.3" font-family="Times,serif" font-size="14.00">created_at :datetime</text>
<text text-anchor="start" x="462.4" y="-642.3" font-family="Times,serif" font-size="14.00">updated_at :datetime</text>
<text text-anchor="start" x="462.4" y="-628.3" font-family="Times,serif" font-size="14.00">subtotal :decimal</text>
<text text-anchor="start" x="462.4" y="-614.3" font-family="Times,serif" font-size="14.00">tax :decimal</text>
<text text-anchor="start" x="462.4" y="-600.3" font-family="Times,serif" font-size="14.00">shipping :decimal</text>
<text text-anchor="start" x="462.4" y="-586.3" font-family="Times,serif" font-size="14.00">total :decimal</text>
<text text-anchor="start" x="462.4" y="-572.3" font-family="Times,serif" font-size="14.00">order_status_id :integer</text>
<text text-anchor="start" x="462.4" y="-558.3" font-family="Times,serif" font-size="14.00">user_id :integer</text>
</g>
<!-- Order&#45;&gt;Bracelet -->
<g id="edge7" class="edge"><title>Order&#45;&gt;Bracelet</title>
<path fill="none" stroke="#727131" d="M592.461,-542.898C596.973,-536.346 601.533,-529.724 606.071,-523.136"/>
<polygon fill="#727131" stroke="#727131" points="592.272,-543.172 582.894,-548.855 589.436,-547.29 586.601,-551.407 586.601,-551.407 586.601,-551.407 589.436,-547.29 590.307,-553.96 592.272,-543.172 592.272,-543.172"/>
<polygon fill="#727131" stroke="#727131" points="606.129,-523.051 615.507,-517.368 608.965,-518.933 611.801,-514.815 611.801,-514.815 611.801,-514.815 608.965,-518.933 608.095,-512.263 606.129,-523.051 606.129,-523.051"/>
</g>
<!-- Order&#45;&gt;OrderItem -->
<g id="edge6" class="edge"><title>Order&#45;&gt;OrderItem</title>
<path fill="none" stroke="#9a6b24" d="M535.648,-543C541.051,-471.189 548.467,-372.628 553.628,-304.038"/>
<ellipse fill="none" stroke="#9a6b24" cx="535.336" cy="-547.143" rx="4" ry="4"/>
<polygon fill="#9a6b24" stroke="#9a6b24" points="553.654,-303.691 558.892,-294.057 554.029,-298.705 554.404,-293.719 554.404,-293.719 554.404,-293.719 554.029,-298.705 549.917,-293.382 553.654,-303.691 553.654,-303.691"/>
</g>
<!-- OrderStatus -->
<g id="node9" class="node"><title>OrderStatus</title>
<path fill="none" stroke="black" d="M460.182,-835.5C460.182,-835.5 569.193,-835.5 569.193,-835.5 575.193,-835.5 581.193,-841.5 581.193,-847.5 581.193,-847.5 581.193,-909.5 581.193,-909.5 581.193,-915.5 575.193,-921.5 569.193,-921.5 569.193,-921.5 460.182,-921.5 460.182,-921.5 454.182,-921.5 448.182,-915.5 448.182,-909.5 448.182,-909.5 448.182,-847.5 448.182,-847.5 448.182,-841.5 454.182,-835.5 460.182,-835.5"/>
<text text-anchor="middle" x="514.688" y="-906.3" font-family="Times,serif" font-size="14.00">OrderStatus</text>
<polyline fill="none" stroke="black" points="448.182,-899.5 581.193,-899.5 "/>
<text text-anchor="start" x="456.182" y="-884.3" font-family="Times,serif" font-size="14.00">id :integer</text>
<text text-anchor="start" x="456.182" y="-870.3" font-family="Times,serif" font-size="14.00">name :string</text>
<text text-anchor="start" x="456.182" y="-856.3" font-family="Times,serif" font-size="14.00">created_at :datetime</text>
<text text-anchor="start" x="456.182" y="-842.3" font-family="Times,serif" font-size="14.00">updated_at :datetime</text>
</g>
<!-- OrderStatus&#45;&gt;Order -->
<g id="edge8" class="edge"><title>OrderStatus&#45;&gt;Order</title>
<path fill="none" stroke="#e043f0" d="M517.629,-827.08C519.24,-799.465 521.289,-764.339 523.184,-731.846"/>
<ellipse fill="none" stroke="#e043f0" cx="517.375" cy="-831.427" rx="4" ry="4"/>
<polygon fill="#e043f0" stroke="#e043f0" points="523.184,-731.84 528.259,-722.119 523.476,-726.849 523.767,-721.857 523.767,-721.857 523.767,-721.857 523.476,-726.849 519.275,-721.595 523.184,-731.84 523.184,-731.84"/>
</g>
<!-- User -->
<g id="node10" class="node"><title>User</title>
<path fill="none" stroke="black" d="M611.41,-758.5C611.41,-758.5 791.966,-758.5 791.966,-758.5 797.966,-758.5 803.966,-764.5 803.966,-770.5 803.966,-770.5 803.966,-986.5 803.966,-986.5 803.966,-992.5 797.966,-998.5 791.966,-998.5 791.966,-998.5 611.41,-998.5 611.41,-998.5 605.41,-998.5 599.41,-992.5 599.41,-986.5 599.41,-986.5 599.41,-770.5 599.41,-770.5 599.41,-764.5 605.41,-758.5 611.41,-758.5"/>
<text text-anchor="middle" x="701.688" y="-983.3" font-family="Times,serif" font-size="14.00">User</text>
<polyline fill="none" stroke="black" points="599.41,-976.5 803.966,-976.5 "/>
<text text-anchor="start" x="607.41" y="-961.3" font-family="Times,serif" font-size="14.00">id :integer</text>
<text text-anchor="start" x="607.41" y="-947.3" font-family="Times,serif" font-size="14.00">first_name :string</text>
<text text-anchor="start" x="607.41" y="-933.3" font-family="Times,serif" font-size="14.00">created_at :datetime</text>
<text text-anchor="start" x="607.41" y="-919.3" font-family="Times,serif" font-size="14.00">updated_at :datetime</text>
<text text-anchor="start" x="607.41" y="-905.3" font-family="Times,serif" font-size="14.00">email :string</text>
<text text-anchor="start" x="607.41" y="-891.3" font-family="Times,serif" font-size="14.00">encrypted_password :string</text>
<text text-anchor="start" x="607.41" y="-877.3" font-family="Times,serif" font-size="14.00">reset_password_token :string</text>
<text text-anchor="start" x="607.41" y="-863.3" font-family="Times,serif" font-size="14.00">reset_password_sent_at :datetime</text>
<text text-anchor="start" x="607.41" y="-849.3" font-family="Times,serif" font-size="14.00">remember_created_at :datetime</text>
<text text-anchor="start" x="607.41" y="-835.3" font-family="Times,serif" font-size="14.00">sign_in_count :integer</text>
<text text-anchor="start" x="607.41" y="-821.3" font-family="Times,serif" font-size="14.00">current_sign_in_at :datetime</text>
<text text-anchor="start" x="607.41" y="-807.3" font-family="Times,serif" font-size="14.00">last_sign_in_at :datetime</text>
<text text-anchor="start" x="607.41" y="-793.3" font-family="Times,serif" font-size="14.00">current_sign_in_ip :string</text>
<text text-anchor="start" x="607.41" y="-779.3" font-family="Times,serif" font-size="14.00">last_sign_in_ip :string</text>
<text text-anchor="start" x="607.41" y="-765.3" font-family="Times,serif" font-size="14.00">admin :boolean</text>
</g>
<!-- User&#45;&gt;Bracelet -->
<g id="edge9" class="edge"><title>User&#45;&gt;Bracelet</title>
<path fill="none" stroke="#9ccec0" d="M757.282,-748.657C759.814,-739.743 761.997,-730.803 763.688,-722 778.019,-647.363 786.489,-623.499 763.688,-551 760.772,-541.73 756.917,-532.545 752.443,-523.606"/>
<polygon fill="#9ccec0" stroke="#9ccec0" points="757.26,-748.73 750.091,-757.028 755.832,-753.522 754.404,-758.314 754.404,-758.314 754.404,-758.314 755.832,-753.522 758.716,-759.599 757.26,-748.73 757.26,-748.73"/>
<polygon fill="#9ccec0" stroke="#9ccec0" points="752.44,-523.599 751.756,-512.655 750.108,-519.177 747.775,-514.754 747.775,-514.754 747.775,-514.754 750.108,-519.177 743.795,-516.853 752.44,-523.599 752.44,-523.599"/>
</g>
<!-- User&#45;&gt;Collection -->
<g id="edge11" class="edge"><title>User&#45;&gt;Collection</title>
<path fill="none" stroke="#c3725e" d="M694.246,-749.936C692.96,-727.881 691.693,-706.168 690.622,-687.793"/>
<ellipse fill="none" stroke="#c3725e" cx="694.496" cy="-754.21" rx="4" ry="4"/>
<ellipse fill="#c3725e" stroke="#c3725e" cx="690.376" cy="-683.59" rx="4" ry="4"/>
</g>
<!-- User&#45;&gt;Order -->
<g id="edge10" class="edge"><title>User&#45;&gt;Order</title>
<path fill="none" stroke="#55acb5" d="M610.896,-751.546C605.652,-744.271 600.429,-737.025 595.304,-729.916"/>
<ellipse fill="none" stroke="#55acb5" cx="613.356" cy="-754.958" rx="4.00002" ry="4.00002"/>
<polygon fill="#55acb5" stroke="#55acb5" points="595.186,-729.751 592.989,-719.008 592.262,-725.695 589.338,-721.639 589.338,-721.639 589.338,-721.639 592.262,-725.695 585.688,-724.271 595.186,-729.751 595.186,-729.751"/>
</g>
</g>
</svg>
