<?xml version="1.0" encoding="UTF-8" standalone="no"?>
<!DOCTYPE svg PUBLIC "-//W3C//DTD SVG 1.1//EN"
 "http://www.w3.org/Graphics/SVG/1.1/DTD/svg11.dtd">
<!-- Generated by graphviz version 2.38.0 (20140413.2041)
 -->
<!-- Title: models_diagram Pages: 1 -->
<svg width="554pt" height="369pt"
 viewBox="0.00 0.00 553.94 369.00" xmlns="http://www.w3.org/2000/svg" xmlns:xlink="http://www.w3.org/1999/xlink">
<g id="graph0" class="graph" transform="scale(1 1) rotate(0) translate(4 365)">
<title>models_diagram</title>
<polygon fill="white" stroke="none" points="-4,4 -4,-365 549.938,-365 549.938,4 -4,4"/>
<!-- _diagram_info -->
<g id="node1" class="node"><title>_diagram_info</title>
<text text-anchor="start" x="8" y="-346.6" font-family="Times,serif" font-size="13.00">Models diagram</text>
<text text-anchor="start" x="8" y="-333.6" font-family="Times,serif" font-size="13.00">Date: May 11 2015 &#45; 11:08</text>
<text text-anchor="start" x="8" y="-320.6" font-family="Times,serif" font-size="13.00">Migration version: 20150510174027</text>
<text text-anchor="start" x="8" y="-307.6" font-family="Times,serif" font-size="13.00">Generated by RailRoady 1.3.0</text>
<text text-anchor="start" x="8" y="-294.6" font-family="Times,serif" font-size="13.00">http://railroady.prestonlee.com</text>
</g>
<!-- Admin -->
<g id="node2" class="node"><title>Admin</title>
<ellipse fill="none" stroke="black" cx="259.688" cy="-324.5" rx="34.8458" ry="18"/>
<text text-anchor="middle" x="259.688" y="-320.3" font-family="Times,serif" font-size="14.00">Admin</text>
</g>
<!-- Bracelet -->
<g id="node3" class="node"><title>Bracelet</title>
<ellipse fill="none" stroke="black" cx="458.688" cy="-162" rx="39.6299" ry="18"/>
<text text-anchor="middle" x="458.688" y="-157.8" font-family="Times,serif" font-size="14.00">Bracelet</text>
</g>
<!-- Color -->
<g id="node5" class="node"><title>Color</title>
<ellipse fill="none" stroke="black" cx="515.688" cy="-90" rx="30.0035" ry="18"/>
<text text-anchor="middle" x="515.688" y="-85.8" font-family="Times,serif" font-size="14.00">Color</text>
</g>
<!-- Bracelet&#45;&gt;Color -->
<g id="edge3" class="edge"><title>Bracelet&#45;&gt;Color</title>
<path fill="none" stroke="#274068" d="M478.417,-136.771C484.256,-129.601 490.638,-121.762 496.446,-114.631"/>
<polygon fill="#274068" stroke="#274068" points="478.222,-137.01 468.418,-141.923 475.065,-140.887 471.908,-144.765 471.908,-144.765 471.908,-144.765 475.065,-140.887 475.397,-147.606 478.222,-137.01 478.222,-137.01"/>
<polygon fill="#274068" stroke="#274068" points="496.617,-114.42 506.421,-109.507 499.774,-110.543 502.931,-106.666 502.931,-106.666 502.931,-106.666 499.774,-110.543 499.442,-103.824 496.617,-114.42 496.617,-114.42"/>
</g>
<!-- ColorPosition -->
<g id="node6" class="node"><title>ColorPosition</title>
<ellipse fill="none" stroke="black" cx="486.688" cy="-18" rx="59.4946" ry="18"/>
<text text-anchor="middle" x="486.688" y="-13.8" font-family="Times,serif" font-size="14.00">ColorPosition</text>
</g>
<!-- Bracelet&#45;&gt;ColorPosition -->
<g id="edge1" class="edge"><title>Bracelet&#45;&gt;ColorPosition</title>
<path fill="none" stroke="#c3ba02" d="M463.631,-135.929C468.601,-110.725 476.238,-71.9942 481.345,-46.0947"/>
<ellipse fill="none" stroke="#c3ba02" cx="462.839" cy="-139.947" rx="4.00001" ry="4.00001"/>
<polygon fill="#c3ba02" stroke="#c3ba02" points="481.364,-46.0004 487.713,-37.0599 482.331,-41.0948 483.298,-36.1893 483.298,-36.1893 483.298,-36.1893 482.331,-41.0948 478.883,-35.3187 481.364,-46.0004 481.364,-46.0004"/>
</g>
<!-- OrderItem -->
<g id="node8" class="node"><title>OrderItem</title>
<ellipse fill="none" stroke="black" cx="377.688" cy="-90" rx="46.8719" ry="18"/>
<text text-anchor="middle" x="377.688" y="-85.8" font-family="Times,serif" font-size="14.00">OrderItem</text>
</g>
<!-- Bracelet&#45;&gt;OrderItem -->
<g id="edge2" class="edge"><title>Bracelet&#45;&gt;OrderItem</title>
<path fill="none" stroke="#36dfd0" d="M434.847,-140.397C424.993,-131.881 413.545,-121.988 403.494,-113.302"/>
<ellipse fill="none" stroke="#36dfd0" cx="438.085" cy="-143.196" rx="4.00002" ry="4.00002"/>
<polygon fill="#36dfd0" stroke="#36dfd0" points="403.356,-113.183 398.732,-103.239 399.573,-109.913 395.79,-106.644 395.79,-106.644 395.79,-106.644 399.573,-109.913 392.848,-110.049 403.356,-113.183 403.356,-113.183"/>
</g>
<!-- Collection -->
<g id="node4" class="node"><title>Collection</title>
<ellipse fill="none" stroke="black" cx="460.688" cy="-234" rx="46.8977" ry="18"/>
<text text-anchor="middle" x="460.688" y="-229.8" font-family="Times,serif" font-size="14.00">Collection</text>
</g>
<!-- Collection&#45;&gt;Bracelet -->
<g id="edge4" class="edge"><title>Collection&#45;&gt;Bracelet</title>
<path fill="none" stroke="#8c439e" d="M459.963,-207.64C459.804,-202.063 459.634,-196.132 459.473,-190.476"/>
<ellipse fill="none" stroke="#8c439e" cx="460.079" cy="-211.698" rx="4" ry="4"/>
<polygon fill="#8c439e" stroke="#8c439e" points="459.462,-190.1 463.675,-179.976 459.319,-185.102 459.176,-180.104 459.176,-180.104 459.176,-180.104 459.319,-185.102 454.678,-180.233 459.462,-190.1 459.462,-190.1"/>
</g>
<!-- Color&#45;&gt;ColorPosition -->
<g id="edge5" class="edge"><title>Color&#45;&gt;ColorPosition</title>
<path fill="none" stroke="#e56e42" d="M505.653,-64.7779C503.07,-58.544 500.278,-51.8046 497.651,-45.4634"/>
<ellipse fill="none" stroke="#e56e42" cx="507.284" cy="-68.7155" rx="4.00001" ry="4.00001"/>
<polygon fill="#e56e42" stroke="#e56e42" points="497.54,-45.1948 497.87,-34.2339 495.626,-40.5755 493.712,-35.9562 493.712,-35.9562 493.712,-35.9562 495.626,-40.5755 489.555,-37.6786 497.54,-45.1948 497.54,-45.1948"/>
</g>
<!-- Order -->
<g id="node7" class="node"><title>Order</title>
<ellipse fill="none" stroke="black" cx="364.688" cy="-234" rx="30.9619" ry="18"/>
<text text-anchor="middle" x="364.688" y="-229.8" font-family="Times,serif" font-size="14.00">Order</text>
</g>
<!-- Order&#45;&gt;Bracelet -->
<g id="edge7" class="edge"><title>Order&#45;&gt;Bracelet</title>
<path fill="none" stroke="#135aed" d="M391.671,-212.906C403.899,-203.8 418.352,-193.038 430.698,-183.843"/>
<polygon fill="#135aed" stroke="#135aed" points="391.28,-213.198 380.571,-215.561 387.269,-216.184 383.259,-219.17 383.259,-219.17 383.259,-219.17 387.269,-216.184 385.947,-222.779 391.28,-213.198 391.28,-213.198"/>
<polygon fill="#135aed" stroke="#135aed" points="430.836,-183.74 441.545,-181.377 434.847,-180.754 438.857,-177.768 438.857,-177.768 438.857,-177.768 434.847,-180.754 436.169,-174.158 430.836,-183.74 430.836,-183.74"/>
</g>
<!-- Order&#45;&gt;OrderItem -->
<g id="edge6" class="edge"><title>Order&#45;&gt;OrderItem</title>
<path fill="none" stroke="#dd31eb" d="M367.017,-207.558C369.316,-182.444 372.821,-144.164 375.18,-118.393"/>
<ellipse fill="none" stroke="#dd31eb" cx="366.621" cy="-211.888" rx="4" ry="4"/>
<polygon fill="#dd31eb" stroke="#dd31eb" points="375.202,-118.148 380.595,-108.6 375.658,-113.168 376.114,-108.189 376.114,-108.189 376.114,-108.189 375.658,-113.168 371.633,-107.779 375.202,-118.148 375.202,-118.148"/>
</g>
<!-- OrderStatus -->
<g id="node9" class="node"><title>OrderStatus</title>
<ellipse fill="none" stroke="black" cx="364.688" cy="-324.5" rx="52.202" ry="18"/>
<text text-anchor="middle" x="364.688" y="-320.3" font-family="Times,serif" font-size="14.00">OrderStatus</text>
</g>
<!-- OrderStatus&#45;&gt;Order -->
<g id="edge8" class="edge"><title>OrderStatus&#45;&gt;Order</title>
<path fill="none" stroke="#007ffd" d="M364.688,-298.189C364.688,-286.971 364.688,-273.752 364.688,-262.311"/>
<ellipse fill="none" stroke="#007ffd" cx="364.688" cy="-302.436" rx="4" ry="4"/>
<polygon fill="#007ffd" stroke="#007ffd" points="364.688,-262.011 369.188,-252.011 364.688,-257.011 364.688,-252.011 364.688,-252.011 364.688,-252.011 364.688,-257.011 360.188,-252.011 364.688,-262.011 364.688,-262.011"/>
</g>
<!-- User -->
<g id="node10" class="node"><title>User</title>
<ellipse fill="none" stroke="black" cx="461.688" cy="-324.5" rx="27" ry="18"/>
<text text-anchor="middle" x="461.688" y="-320.3" font-family="Times,serif" font-size="14.00">User</text>
</g>
<!-- User&#45;&gt;Bracelet -->
<g id="edge9" class="edge"><title>User&#45;&gt;Bracelet</title>
<path fill="none" stroke="#4129bd" d="M484.678,-302.56C505.254,-281.146 530.244,-246.752 516.688,-216 510.944,-202.971 500.24,-191.754 489.577,-183.039"/>
<polygon fill="#4129bd" stroke="#4129bd" points="484.462,-302.775 474.201,-306.643 480.919,-306.303 477.376,-309.832 477.376,-309.832 477.376,-309.832 480.919,-306.303 480.552,-313.02 484.462,-302.775 484.462,-302.775"/>
<polygon fill="#4129bd" stroke="#4129bd" points="489.457,-182.948 484.246,-173.299 485.485,-179.911 481.513,-176.874 481.513,-176.874 481.513,-176.874 485.485,-179.911 478.78,-180.448 489.457,-182.948 489.457,-182.948"/>
</g>
<!-- User&#45;&gt;Collection -->
<g id="edge11" class="edge"><title>User&#45;&gt;Collection</title>
<path fill="none" stroke="#1621c6" d="M461.402,-298.189C461.267,-286.277 461.107,-272.109 460.973,-260.21"/>
<ellipse fill="none" stroke="#1621c6" cx="461.45" cy="-302.437" rx="4" ry="4"/>
<ellipse fill="#1621c6" stroke="#1621c6" cx="460.925" cy="-256.011" rx="4" ry="4"/>
</g>
<!-- User&#45;&gt;Order -->
<g id="edge10" class="edge"><title>User&#45;&gt;Order</title>
<path fill="none" stroke="#d4c474" d="M441.711,-303.359C436.553,-298.281 430.966,-292.886 425.688,-288 413.924,-277.11 400.509,-265.382 389.26,-255.734"/>
<ellipse fill="none" stroke="#d4c474" cx="444.684" cy="-306.308" rx="4.00002" ry="4.00002"/>
<polygon fill="#d4c474" stroke="#d4c474" points="389.114,-255.609 384.428,-245.695 385.31,-252.364 381.507,-249.118 381.507,-249.118 381.507,-249.118 385.31,-252.364 378.586,-252.542 389.114,-255.609 389.114,-255.609"/>
</g>
</g>
</svg>
